<svg xmlns="http://www.w3.org/2000/svg" width="1000" height="512" viewBox="0 0 1000 512">
<style>text{font-family:Arial,sans-serif;fill:#17202a}.title{font-size:24px;font-weight:700}.subtitle{font-size:13px;fill:#566573}.axis{stroke:#aab7b8;stroke-width:1}.grid{stroke:#e5e7e9;stroke-width:1}.label{font-size:12px}.value{font-size:12px;font-weight:700}.legend{font-size:13px}</style>
<rect width="100%" height="100%" fill="#ffffff"/>
<text x="190" y="38" class="title">Latencia media - UPDATE com 800 usuarios</text>
<text x="190" y="62" class="subtitle">Ranking entre todas as APIs. Menor e melhor. Escopo: operacoes UPDATE.</text>
<rect x="730" y="76" width="16" height="10" rx="2" fill="#e4572e"/>
<text x="753" y="86" class="legend">Python</text>
<rect x="855" y="76" width="16" height="10" rx="2" fill="#2563eb"/>
<text x="878" y="86" class="legend">TypeScript</text>
<line x1="309.4" y1="90" x2="309.4" y2="457" class="grid"/>
<text x="309.4" y="489" text-anchor="middle" class="label">100 ms</text>
<line x1="701.5" y1="90" x2="701.5" y2="457" class="grid"/>
<text x="701.5" y="489" text-anchor="middle" class="label">1 s</text>
<text x="176" y="125" text-anchor="end" class="label">REST TypeScript</text>
<rect x="190" y="110" width="69.0" height="22" rx="3" fill="#2563eb"/>
<text x="268.0" y="126" class="value">74.3982 ms</text>
<text x="176" y="169" text-anchor="end" class="label">SOAP TypeScript</text>
<rect x="190" y="154" width="98.9" height="22" rx="3" fill="#2563eb"/>
<text x="297.9" y="170" class="value">88.6496 ms</text>
<text x="176" y="213" text-anchor="end" class="label">gRPC TypeScript</text>
<rect x="190" y="198" width="116.5" height="22" rx="3" fill="#2563eb"/>
<text x="315.5" y="214" class="value">98.2966 ms</text>
<text x="176" y="257" text-anchor="end" class="label">GraphQL TypeScript</text>
<rect x="190" y="242" width="171.1" height="22" rx="3" fill="#2563eb"/>
<text x="370.1" y="258" class="value">135.477 ms</text>
<text x="176" y="301" text-anchor="end" class="label">REST Python</text>
<rect x="190" y="286" width="495.2" height="22" rx="3" fill="#e4572e"/>
<text x="694.2" y="302" class="value">908.658 ms</text>
<text x="176" y="345" text-anchor="end" class="label">gRPC Python</text>
<rect x="190" y="330" width="569.1" height="22" rx="3" fill="#e4572e"/>
<text x="768.1" y="346" class="value">1.40207 s</text>
<text x="176" y="389" text-anchor="end" class="label">GraphQL Python</text>
<rect x="190" y="374" width="616.0" height="22" rx="3" fill="#e4572e"/>
<text x="815.0" y="390" class="value">1.84664 s</text>
<text x="176" y="433" text-anchor="end" class="label">SOAP Python</text>
<rect x="190" y="418" width="662.0" height="22" rx="3" fill="#e4572e"/>
<text x="861.0" y="434" class="value">2.41965 s</text>
</svg>
