<svg xmlns="http://www.w3.org/2000/svg" width="1000" height="512" viewBox="0 0 1000 512">
<style>text{font-family:Arial,sans-serif;fill:#17202a}.title{font-size:24px;font-weight:700}.subtitle{font-size:13px;fill:#566573}.axis{stroke:#aab7b8;stroke-width:1}.grid{stroke:#e5e7e9;stroke-width:1}.label{font-size:12px}.value{font-size:12px;font-weight:700}.legend{font-size:13px}</style>
<rect width="100%" height="100%" fill="#ffffff"/>
<text x="190" y="38" class="title">Latencia media - CRUD completo com 250 usuarios</text>
<text x="190" y="62" class="subtitle">Ranking entre todas as APIs. Menor e melhor. Escopo: CRUD completo.</text>
<rect x="730" y="76" width="16" height="10" rx="2" fill="#e4572e"/>
<text x="753" y="86" class="legend">Python</text>
<rect x="855" y="76" width="16" height="10" rx="2" fill="#2563eb"/>
<text x="878" y="86" class="legend">TypeScript</text>
<line x1="353.2" y1="90" x2="353.2" y2="457" class="grid"/>
<text x="353.2" y="489" text-anchor="middle" class="label">10 ms</text>
<line x1="623.8" y1="90" x2="623.8" y2="457" class="grid"/>
<text x="623.8" y="489" text-anchor="middle" class="label">100 ms</text>
<text x="176" y="125" text-anchor="end" class="label">gRPC TypeScript</text>
<rect x="190" y="110" width="47.6" height="22" rx="3" fill="#2563eb"/>
<text x="246.6" y="126" class="value">3.73895 ms</text>
<text x="176" y="169" text-anchor="end" class="label">REST TypeScript</text>
<rect x="190" y="154" width="119.7" height="22" rx="3" fill="#2563eb"/>
<text x="318.7" y="170" class="value">6.90224 ms</text>
<text x="176" y="213" text-anchor="end" class="label">SOAP TypeScript</text>
<rect x="190" y="198" width="127.1" height="22" rx="3" fill="#2563eb"/>
<text x="326.1" y="214" class="value">7.35149 ms</text>
<text x="176" y="257" text-anchor="end" class="label">GraphQL TypeScript</text>
<rect x="190" y="242" width="144.3" height="22" rx="3" fill="#2563eb"/>
<text x="343.3" y="258" class="value">8.51401 ms</text>
<text x="176" y="301" text-anchor="end" class="label">REST Python</text>
<rect x="190" y="286" width="546.1" height="22" rx="3" fill="#e4572e"/>
<text x="745.1" y="302" class="value">260.116 ms</text>
<text x="176" y="345" text-anchor="end" class="label">gRPC Python</text>
<rect x="190" y="330" width="603.1" height="22" rx="3" fill="#e4572e"/>
<text x="802.1" y="346" class="value">422.685 ms</text>
<text x="176" y="389" text-anchor="end" class="label">GraphQL Python</text>
<rect x="190" y="374" width="665.6" height="22" rx="3" fill="#e4572e"/>
<text x="864.6" y="390" class="value">719.439 ms</text>
<text x="176" y="433" text-anchor="end" class="label">SOAP Python</text>
<rect x="190" y="418" width="673.8" height="22" rx="3" fill="#e4572e"/>
<text x="872.8" y="434" class="value">771.333 ms</text>
</svg>
