<svg xmlns="http://www.w3.org/2000/svg" width="1000" height="512" viewBox="0 0 1000 512">
<style>text{font-family:Arial,sans-serif;fill:#17202a}.title{font-size:24px;font-weight:700}.subtitle{font-size:13px;fill:#566573}.axis{stroke:#aab7b8;stroke-width:1}.grid{stroke:#e5e7e9;stroke-width:1}.label{font-size:12px}.value{font-size:12px;font-weight:700}.legend{font-size:13px}</style>
<rect width="100%" height="100%" fill="#ffffff"/>
<text x="190" y="38" class="title">Latencia media - CRUD completo com 800 usuarios</text>
<text x="190" y="62" class="subtitle">Ranking entre todas as APIs. Menor e melhor. Escopo: CRUD completo. Escala linear iniciada em zero.</text>
<rect x="730" y="76" width="16" height="10" rx="2" fill="#e4572e"/>
<text x="753" y="86" class="legend">Python</text>
<rect x="855" y="76" width="16" height="10" rx="2" fill="#2563eb"/>
<text x="878" y="86" class="legend">TypeScript</text>
<line x1="190.0" y1="90" x2="190.0" y2="457" class="grid"/>
<text x="190.0" y="489" text-anchor="middle" class="label">0 ms</text>
<line x1="330.0" y1="90" x2="330.0" y2="457" class="grid"/>
<text x="330.0" y="489" text-anchor="middle" class="label">1 s</text>
<line x1="470.0" y1="90" x2="470.0" y2="457" class="grid"/>
<text x="470.0" y="489" text-anchor="middle" class="label">2 s</text>
<line x1="610.0" y1="90" x2="610.0" y2="457" class="grid"/>
<text x="610.0" y="489" text-anchor="middle" class="label">3 s</text>
<line x1="750.0" y1="90" x2="750.0" y2="457" class="grid"/>
<text x="750.0" y="489" text-anchor="middle" class="label">4 s</text>
<line x1="890.0" y1="90" x2="890.0" y2="457" class="grid"/>
<text x="890.0" y="489" text-anchor="middle" class="label">5 s</text>
<text x="176" y="125" text-anchor="end" class="label">gRPC TypeScript</text>
<rect x="190" y="110" width="37.9" height="22" rx="3" fill="#2563eb"/>
<text x="236.9" y="126" class="value">271 ms</text>
<text x="176" y="169" text-anchor="end" class="label">REST TypeScript</text>
<rect x="190" y="154" width="49.9" height="22" rx="3" fill="#2563eb"/>
<text x="248.9" y="170" class="value">356 ms</text>
<text x="176" y="213" text-anchor="end" class="label">SOAP TypeScript</text>
<rect x="190" y="198" width="71.3" height="22" rx="3" fill="#2563eb"/>
<text x="270.3" y="214" class="value">509 ms</text>
<text x="176" y="257" text-anchor="end" class="label">GraphQL TypeScript</text>
<rect x="190" y="242" width="99.6" height="22" rx="3" fill="#2563eb"/>
<text x="298.6" y="258" class="value">711 ms</text>
<text x="176" y="301" text-anchor="end" class="label">REST Python</text>
<rect x="190" y="286" width="266.3" height="22" rx="3" fill="#e4572e"/>
<text x="465.3" y="302" class="value">1.9 s</text>
<text x="176" y="345" text-anchor="end" class="label">gRPC Python</text>
<rect x="190" y="330" width="292.1" height="22" rx="3" fill="#e4572e"/>
<text x="491.1" y="346" class="value">2.09 s</text>
<text x="176" y="389" text-anchor="end" class="label">GraphQL Python</text>
<rect x="190" y="374" width="537.3" height="22" rx="3" fill="#e4572e"/>
<text x="736.3" y="390" class="value">3.84 s</text>
<text x="176" y="433" text-anchor="end" class="label">SOAP Python</text>
<rect x="190" y="418" width="545.5" height="22" rx="3" fill="#e4572e"/>
<text x="744.5" y="434" class="value">3.9 s</text>
</svg>
