<svg xmlns="http://www.w3.org/2000/svg" width="1000" height="512" viewBox="0 0 1000 512">
<style>text{font-family:Arial,sans-serif;fill:#17202a}.title{font-size:24px;font-weight:700}.subtitle{font-size:13px;fill:#566573}.axis{stroke:#aab7b8;stroke-width:1}.grid{stroke:#e5e7e9;stroke-width:1}.label{font-size:12px}.value{font-size:12px;font-weight:700}.legend{font-size:13px}</style>
<rect width="100%" height="100%" fill="#ffffff"/>
<text x="190" y="38" class="title">Latencia media - POST / CREATE com 800 usuarios</text>
<text x="190" y="62" class="subtitle">Ranking entre todas as APIs. Menor e melhor. Escopo: operacoes POST / CREATE.</text>
<rect x="730" y="76" width="16" height="10" rx="2" fill="#e4572e"/>
<text x="753" y="86" class="legend">Python</text>
<rect x="855" y="76" width="16" height="10" rx="2" fill="#2563eb"/>
<text x="878" y="86" class="legend">TypeScript</text>
<line x1="277.8" y1="90" x2="277.8" y2="457" class="grid"/>
<text x="277.8" y="489" text-anchor="middle" class="label">100 ms</text>
<line x1="597.1" y1="90" x2="597.1" y2="457" class="grid"/>
<text x="597.1" y="489" text-anchor="middle" class="label">1 s</text>
<text x="176" y="125" text-anchor="end" class="label">REST TypeScript</text>
<rect x="190" y="110" width="56.2" height="22" rx="3" fill="#2563eb"/>
<text x="255.2" y="126" class="value">79.6604 ms</text>
<text x="176" y="169" text-anchor="end" class="label">SOAP TypeScript</text>
<rect x="190" y="154" width="86.6" height="22" rx="3" fill="#2563eb"/>
<text x="285.6" y="170" class="value">99.1597 ms</text>
<text x="176" y="213" text-anchor="end" class="label">gRPC TypeScript</text>
<rect x="190" y="198" width="90.6" height="22" rx="3" fill="#2563eb"/>
<text x="289.6" y="214" class="value">102.03 ms</text>
<text x="176" y="257" text-anchor="end" class="label">GraphQL TypeScript</text>
<rect x="190" y="242" width="159.9" height="22" rx="3" fill="#2563eb"/>
<text x="358.9" y="258" class="value">168.208 ms</text>
<text x="176" y="301" text-anchor="end" class="label">gRPC Python</text>
<rect x="190" y="286" width="448.7" height="22" rx="3" fill="#e4572e"/>
<text x="647.7" y="302" class="value">1.34888 s</text>
<text x="176" y="345" text-anchor="end" class="label">SOAP Python</text>
<rect x="190" y="330" width="524.5" height="22" rx="3" fill="#e4572e"/>
<text x="723.5" y="346" class="value">2.33099 s</text>
<text x="176" y="389" text-anchor="end" class="label">REST Python</text>
<rect x="190" y="374" width="654.9" height="22" rx="3" fill="#e4572e"/>
<text x="853.9" y="390" class="value">5.9648 s</text>
<text x="176" y="433" text-anchor="end" class="label">GraphQL Python</text>
<rect x="190" y="418" width="669.0" height="22" rx="3" fill="#e4572e"/>
<text x="868.0" y="434" class="value">6.60776 s</text>
</svg>
