<svg xmlns="http://www.w3.org/2000/svg" width="1000" height="512" viewBox="0 0 1000 512">
<style>text{font-family:Arial,sans-serif;fill:#17202a}.title{font-size:24px;font-weight:700}.subtitle{font-size:13px;fill:#566573}.axis{stroke:#aab7b8;stroke-width:1}.grid{stroke:#e5e7e9;stroke-width:1}.label{font-size:12px}.value{font-size:12px;font-weight:700}.legend{font-size:13px}</style>
<rect width="100%" height="100%" fill="#ffffff"/>
<text x="190" y="38" class="title">Latencia media - todas as APIs com 250 usuarios</text>
<text x="190" y="62" class="subtitle">Ranking crescente; eixo logaritmico para preservar diferencas entre poucos ms e varios segundos.</text>
<rect x="730" y="76" width="16" height="10" rx="2" fill="#e4572e"/>
<text x="753" y="86" class="legend">Python</text>
<rect x="855" y="76" width="16" height="10" rx="2" fill="#2563eb"/>
<text x="878" y="86" class="legend">TypeScript</text>
<line x1="345.0" y1="90" x2="345.0" y2="457" class="grid"/>
<text x="345.0" y="489" text-anchor="middle" class="label">10 ms</text>
<line x1="612.8" y1="90" x2="612.8" y2="457" class="grid"/>
<text x="612.8" y="489" text-anchor="middle" class="label">100 ms</text>
<line x1="880.6" y1="90" x2="880.6" y2="457" class="grid"/>
<text x="880.6" y="489" text-anchor="middle" class="label">1 s</text>
<text x="176" y="125" text-anchor="end" class="label">REST TypeScript</text>
<rect x="190" y="110" width="47.2" height="22" rx="3" fill="#2563eb"/>
<text x="246.2" y="126" class="value">3.95488 ms</text>
<text x="176" y="169" text-anchor="end" class="label">gRPC TypeScript</text>
<rect x="190" y="154" width="85.4" height="22" rx="3" fill="#2563eb"/>
<text x="284.4" y="170" class="value">5.49498 ms</text>
<text x="176" y="213" text-anchor="end" class="label">GraphQL TypeScript</text>
<rect x="190" y="198" width="176.5" height="22" rx="3" fill="#2563eb"/>
<text x="375.5" y="214" class="value">12.0238 ms</text>
<text x="176" y="257" text-anchor="end" class="label">SOAP TypeScript</text>
<rect x="190" y="242" width="229.6" height="22" rx="3" fill="#2563eb"/>
<text x="428.6" y="258" class="value">18.9887 ms</text>
<text x="176" y="301" text-anchor="end" class="label">REST Python</text>
<rect x="190" y="286" width="571.4" height="22" rx="3" fill="#e4572e"/>
<text x="770.4" y="302" class="value">359.018 ms</text>
<text x="176" y="345" text-anchor="end" class="label">gRPC Python</text>
<rect x="190" y="330" width="594.6" height="22" rx="3" fill="#e4572e"/>
<text x="793.6" y="346" class="value">438.086 ms</text>
<text x="176" y="389" text-anchor="end" class="label">GraphQL Python</text>
<rect x="190" y="374" width="660.4" height="22" rx="3" fill="#e4572e"/>
<text x="859.4" y="390" class="value">771.288 ms</text>
<text x="176" y="433" text-anchor="end" class="label">SOAP Python</text>
<rect x="190" y="418" width="674.1" height="22" rx="3" fill="#e4572e"/>
<text x="873.1" y="434" class="value">867.618 ms</text>
</svg>
