<svg xmlns="http://www.w3.org/2000/svg" width="1000" height="512" viewBox="0 0 1000 512">
<style>text{font-family:Arial,sans-serif;fill:#17202a}.title{font-size:24px;font-weight:700}.subtitle{font-size:13px;fill:#566573}.axis{stroke:#aab7b8;stroke-width:1}.grid{stroke:#e5e7e9;stroke-width:1}.label{font-size:12px}.value{font-size:12px;font-weight:700}.legend{font-size:13px}</style>
<rect width="100%" height="100%" fill="#ffffff"/>
<text x="190" y="38" class="title">P95 - POST / CREATE com 800 usuarios</text>
<text x="190" y="62" class="subtitle">Ranking entre todas as APIs. Menor e melhor. P95 ponderado das operacoes POST / CREATE por quantidade de requisicoes.</text>
<rect x="730" y="76" width="16" height="10" rx="2" fill="#e4572e"/>
<text x="753" y="86" class="legend">Python</text>
<rect x="855" y="76" width="16" height="10" rx="2" fill="#2563eb"/>
<text x="878" y="86" class="legend">TypeScript</text>
<line x1="217.9" y1="90" x2="217.9" y2="457" class="grid"/>
<text x="217.9" y="489" text-anchor="middle" class="label">100 ms</text>
<line x1="518.9" y1="90" x2="518.9" y2="457" class="grid"/>
<text x="518.9" y="489" text-anchor="middle" class="label">1 s</text>
<line x1="820.0" y1="90" x2="820.0" y2="457" class="grid"/>
<text x="820.0" y="489" text-anchor="middle" class="label">10 s</text>
<text x="176" y="125" text-anchor="end" class="label">REST TypeScript</text>
<rect x="190" y="110" width="53.0" height="22" rx="3" fill="#2563eb"/>
<text x="252.0" y="126" class="value">121.183 ms</text>
<text x="176" y="169" text-anchor="end" class="label">SOAP TypeScript</text>
<rect x="190" y="154" width="74.4" height="22" rx="3" fill="#2563eb"/>
<text x="273.4" y="170" class="value">142.729 ms</text>
<text x="176" y="213" text-anchor="end" class="label">gRPC TypeScript</text>
<rect x="190" y="198" width="104.7" height="22" rx="3" fill="#2563eb"/>
<text x="303.7" y="214" class="value">180 ms</text>
<text x="176" y="257" text-anchor="end" class="label">GraphQL TypeScript</text>
<rect x="190" y="242" width="130.2" height="22" rx="3" fill="#2563eb"/>
<text x="329.2" y="258" class="value">218.755 ms</text>
<text x="176" y="301" text-anchor="end" class="label">gRPC Python</text>
<rect x="190" y="286" width="447.0" height="22" rx="3" fill="#e4572e"/>
<text x="646.0" y="302" class="value">2.46676 s</text>
<text x="176" y="345" text-anchor="end" class="label">SOAP Python</text>
<rect x="190" y="330" width="468.1" height="22" rx="3" fill="#e4572e"/>
<text x="667.1" y="346" class="value">2.9 s</text>
<text x="176" y="389" text-anchor="end" class="label">GraphQL Python</text>
<rect x="190" y="374" width="667.6" height="22" rx="3" fill="#e4572e"/>
<text x="866.6" y="390" class="value">13.3322 s</text>
<text x="176" y="433" text-anchor="end" class="label">REST Python</text>
<rect x="190" y="418" width="670.8" height="22" rx="3" fill="#e4572e"/>
<text x="869.8" y="434" class="value">13.6661 s</text>
</svg>
