<svg xmlns="http://www.w3.org/2000/svg" width="1000" height="512" viewBox="0 0 1000 512">
<style>text{font-family:Arial,sans-serif;fill:#17202a}.title{font-size:24px;font-weight:700}.subtitle{font-size:13px;fill:#566573}.axis{stroke:#aab7b8;stroke-width:1}.grid{stroke:#e5e7e9;stroke-width:1}.label{font-size:12px}.value{font-size:12px;font-weight:700}.legend{font-size:13px}</style>
<rect width="100%" height="100%" fill="#ffffff"/>
<text x="190" y="38" class="title">P95 - UPDATE com 250 usuarios</text>
<text x="190" y="62" class="subtitle">Ranking entre todas as APIs. Menor e melhor. P95 ponderado das operacoes UPDATE por quantidade de requisicoes.</text>
<rect x="730" y="76" width="16" height="10" rx="2" fill="#e4572e"/>
<text x="753" y="86" class="legend">Python</text>
<rect x="855" y="76" width="16" height="10" rx="2" fill="#2563eb"/>
<text x="878" y="86" class="legend">TypeScript</text>
<line x1="271.9" y1="90" x2="271.9" y2="457" class="grid"/>
<text x="271.9" y="489" text-anchor="middle" class="label">10 ms</text>
<line x1="571.8" y1="90" x2="571.8" y2="457" class="grid"/>
<text x="571.8" y="489" text-anchor="middle" class="label">100 ms</text>
<line x1="871.8" y1="90" x2="871.8" y2="457" class="grid"/>
<text x="871.8" y="489" text-anchor="middle" class="label">1 s</text>
<text x="176" y="125" text-anchor="end" class="label">gRPC TypeScript</text>
<rect x="190" y="110" width="52.8" height="22" rx="3" fill="#2563eb"/>
<text x="251.8" y="126" class="value">8 ms</text>
<text x="176" y="169" text-anchor="end" class="label">SOAP TypeScript</text>
<rect x="190" y="154" width="116.1" height="22" rx="3" fill="#2563eb"/>
<text x="315.1" y="170" class="value">13 ms</text>
<text x="176" y="213" text-anchor="end" class="label">REST TypeScript</text>
<rect x="190" y="198" width="119.4" height="22" rx="3" fill="#2563eb"/>
<text x="318.4" y="214" class="value">13.3333 ms</text>
<text x="176" y="257" text-anchor="end" class="label">GraphQL TypeScript</text>
<rect x="190" y="242" width="131.8" height="22" rx="3" fill="#2563eb"/>
<text x="330.8" y="258" class="value">14.6661 ms</text>
<text x="176" y="301" text-anchor="end" class="label">REST Python</text>
<rect x="190" y="286" width="529.2" height="22" rx="3" fill="#e4572e"/>
<text x="728.2" y="302" class="value">310 ms</text>
<text x="176" y="345" text-anchor="end" class="label">gRPC Python</text>
<rect x="190" y="330" width="627.7" height="22" rx="3" fill="#e4572e"/>
<text x="826.7" y="346" class="value">660 ms</text>
<text x="176" y="389" text-anchor="end" class="label">GraphQL Python</text>
<rect x="190" y="374" width="647.7" height="22" rx="3" fill="#e4572e"/>
<text x="846.7" y="390" class="value">770 ms</text>
<text x="176" y="433" text-anchor="end" class="label">SOAP Python</text>
<rect x="190" y="418" width="670.9" height="22" rx="3" fill="#e4572e"/>
<text x="869.9" y="434" class="value">919.997 ms</text>
</svg>
