<svg xmlns="http://www.w3.org/2000/svg" width="1000" height="512" viewBox="0 0 1000 512">
<style>text{font-family:Arial,sans-serif;fill:#17202a}.title{font-size:24px;font-weight:700}.subtitle{font-size:13px;fill:#566573}.axis{stroke:#aab7b8;stroke-width:1}.grid{stroke:#e5e7e9;stroke-width:1}.label{font-size:12px}.value{font-size:12px;font-weight:700}.legend{font-size:13px}</style>
<rect width="100%" height="100%" fill="#ffffff"/>
<text x="190" y="38" class="title">Tamanho medio da resposta - CRUD completo com 250 usuarios</text>
<text x="190" y="62" class="subtitle">Ranking entre todas as APIs. Corpo medio recebido. Escala linear iniciada em zero.</text>
<rect x="730" y="76" width="16" height="10" rx="2" fill="#e4572e"/>
<text x="753" y="86" class="legend">Python</text>
<rect x="855" y="76" width="16" height="10" rx="2" fill="#2563eb"/>
<text x="878" y="86" class="legend">TypeScript</text>
<line x1="190.0" y1="90" x2="190.0" y2="457" class="grid"/>
<text x="190.0" y="489" text-anchor="middle" class="label">0 B</text>
<line x1="330.0" y1="90" x2="330.0" y2="457" class="grid"/>
<text x="330.0" y="489" text-anchor="middle" class="label">500 B</text>
<line x1="470.0" y1="90" x2="470.0" y2="457" class="grid"/>
<text x="470.0" y="489" text-anchor="middle" class="label">1 kB</text>
<line x1="610.0" y1="90" x2="610.0" y2="457" class="grid"/>
<text x="610.0" y="489" text-anchor="middle" class="label">1.5 kB</text>
<line x1="750.0" y1="90" x2="750.0" y2="457" class="grid"/>
<text x="750.0" y="489" text-anchor="middle" class="label">2 kB</text>
<line x1="890.0" y1="90" x2="890.0" y2="457" class="grid"/>
<text x="890.0" y="489" text-anchor="middle" class="label">2.5 kB</text>
<text x="176" y="125" text-anchor="end" class="label">gRPC TypeScript</text>
<rect x="190" y="110" width="97.3" height="22" rx="3" fill="#2563eb"/>
<text x="296.3" y="126" class="value">347 B</text>
<text x="176" y="169" text-anchor="end" class="label">gRPC Python</text>
<rect x="190" y="154" width="121.6" height="22" rx="3" fill="#e4572e"/>
<text x="320.6" y="170" class="value">434 B</text>
<text x="176" y="213" text-anchor="end" class="label">REST TypeScript</text>
<rect x="190" y="198" width="194.4" height="22" rx="3" fill="#2563eb"/>
<text x="393.4" y="214" class="value">694 B</text>
<text x="176" y="257" text-anchor="end" class="label">GraphQL TypeScript</text>
<rect x="190" y="242" width="216.0" height="22" rx="3" fill="#2563eb"/>
<text x="415.0" y="258" class="value">771 B</text>
<text x="176" y="301" text-anchor="end" class="label">REST Python</text>
<rect x="190" y="286" width="218.5" height="22" rx="3" fill="#e4572e"/>
<text x="417.5" y="302" class="value">780 B</text>
<text x="176" y="345" text-anchor="end" class="label">GraphQL Python</text>
<rect x="190" y="330" width="243.9" height="22" rx="3" fill="#e4572e"/>
<text x="442.9" y="346" class="value">871 B</text>
<text x="176" y="389" text-anchor="end" class="label">SOAP TypeScript</text>
<rect x="190" y="374" width="469.2" height="22" rx="3" fill="#2563eb"/>
<text x="668.2" y="390" class="value">1.68 kB</text>
<text x="176" y="433" text-anchor="end" class="label">SOAP Python</text>
<rect x="190" y="418" width="511.9" height="22" rx="3" fill="#e4572e"/>
<text x="710.9" y="434" class="value">1.83 kB</text>
</svg>
